<svg width="22" height="26" viewBox="0 0 22 26" fill="none" xmlns="http://www.w3.org/2000/svg">
<path d="M16.3848 9.62269C20.0543 13.2824 20.0543 19.2254 16.3848 22.8851C14.5343 24.7306 11.5548 24.7306 9.73566 22.8851C7.91656 21.0396 7.8852 18.0994 9.73566 16.2539C11.5861 14.4084 11.5861 11.4369 9.73566 9.62269C7.8852 7.80849 4.90564 7.77721 3.08655 9.62269C6.7561 5.96301 12.7152 5.96301 16.3848 9.62269Z" fill="white"/>
<path d="M3.02988 22.71C-0.639679 19.0503 -0.639679 13.1073 3.02988 9.44759C4.88034 7.60211 7.85989 7.60211 9.67899 9.44759C11.5295 11.2931 11.5295 14.2646 9.67899 16.0788C7.82853 17.893 7.82853 20.8958 9.67899 22.71C11.5295 24.5242 14.509 24.5555 16.3281 22.71C12.6585 26.3697 6.69944 26.3697 3.02988 22.71Z" fill="black"/>
<path d="M13.3186 21.5016C14.3159 21.5016 15.1243 20.7053 15.1243 19.723C15.1243 18.7407 14.3159 17.9443 13.3186 17.9443C12.3214 17.9443 11.5129 18.7407 11.5129 19.723C11.5129 20.7053 12.3214 21.5016 13.3186 21.5016Z" fill="black"/>
<path d="M6.09595 14.3874C7.0932 14.3874 7.90162 13.5911 7.90162 12.6087C7.90162 11.6264 7.0932 10.8301 6.09595 10.8301C5.09871 10.8301 4.29028 11.6264 4.29028 12.6087C4.29028 13.5911 5.09871 14.3874 6.09595 14.3874Z" fill="white"/>
<path d="M10.337 0C10.337 0 9.81539 -1.53134e-08 9.81539 0.256917C9.83169 0.482522 10.8587 0.513834 10.8587 0.256917C10.8668 0.00762722 10.337 0 10.337 0ZM7.2624 1.17188C6.61035 1.4585 5.91388 1.81979 5.3951 2.30954C4.02499 3.71857 3.10804 5.83813 3.3273 9.23827C3.98953 10.1415 6.4734 10.8467 7.76119 11.0474C9.84552 11.9172 17.1183 11.4752 18.5347 10.0251C18.4776 8.11024 19.1982 5.5074 18.4224 3.59684C17.9008 2.31225 17.4321 1.72746 15.8142 1.17188C13.9559 0.5898 9.07998 0.356969 7.2624 1.17188ZM8.49721 11.6107C8.28283 12.0751 9.29375 13.8735 9.84774 14.3874C10.4017 14.9012 11.1518 15.415 11.4127 15.415C14.2817 16.4427 21.3238 14.3874 21.3238 14.3874C21.3238 14.3874 21.9138 14.2025 21.9905 13.4403C22.1269 12.0862 20.7698 11.3043 18.944 10.2767C15.8142 11.8182 11.3803 12.0751 8.49721 11.6107Z" fill="#E82D32"/>
</svg>
