<svg width="44" height="52" viewBox="0 0 44 52" fill="none" xmlns="http://www.w3.org/2000/svg">
<path d="M13.3529 28.5V7.25C13.3529 6.25544 13.7434 5.30161 14.4384 4.59835C15.1334 3.89509 16.076 3.5 17.0588 3.5C18.0417 3.5 18.9843 3.89509 19.6793 4.59835C20.3743 5.30161 20.7647 6.25544 20.7647 7.25V27.25M20.7647 27.25V19.75C20.7647 18.7554 21.1551 17.8016 21.8501 17.0983C22.5451 16.3951 23.4877 16 24.4706 16C25.4534 16 26.396 16.3951 27.091 17.0983C27.786 17.8016 28.1765 18.7554 28.1765 19.75V27.25M28.1765 27.25C28.1765 26.2554 28.5669 20.3016 29.2619 19.5983C29.9569 18.8951 30.8995 18.5 31.8823 18.5C32.8652 18.5 33.8078 18.8951 34.5028 19.5983C35.1978 20.3016 35.5882 21.2554 35.5882 22.25V26" fill="white"/>
<path d="M13.3529 28.5V7.25C13.3529 6.25544 13.7434 5.30161 14.4384 4.59835C15.1334 3.89509 16.076 3.5 17.0588 3.5C18.0417 3.5 18.9843 3.89509 19.6793 4.59835C20.3743 5.30161 20.7647 6.25544 20.7647 7.25V27.25V19.75C20.7647 18.7554 21.1551 17.8016 21.8501 17.0983C22.5451 16.3951 23.4877 16 24.4706 16C25.4534 16 26.396 16.3951 27.091 17.0983C27.786 17.8016 28.1765 18.7554 28.1765 19.75V27.25C28.1765 26.2554 28.5669 20.3016 29.2619 19.5983C29.9569 18.8951 30.8995 18.5 31.8823 18.5C32.8652 18.5 33.8078 18.8951 34.5028 19.5983C35.1978 20.3016 35.5882 21.2554 35.5882 22.25V26" stroke="black" stroke-linecap="round" stroke-linejoin="round"/>
<path d="M35.5882 24.75C35.5882 23.7554 35.9787 22.8016 36.6737 22.0983C37.3687 21.3951 38.3113 21 39.2941 21C40.277 21 41.2196 21.3951 41.9146 22.0983C42.6096 22.8016 43 23.7554 43 24.75V36C43 39.9782 41.4382 43.7936 38.6583 46.6066C35.8783 49.4196 32.1079 51 28.1765 51H23.2353H23.7492C21.2942 51.0004 18.8776 50.3839 16.7164 49.2057C14.5551 48.0276 12.7168 46.3247 11.3666 44.25L10.8824 43.5C10.1115 42.3025 7.40624 37.53 2.764 29.18C2.29076 28.3288 2.16435 27.3244 2.41165 26.3804C2.65895 25.4363 3.26046 24.6272 4.08824 24.125C4.96993 23.5897 6.00312 23.3678 7.02369 23.4946C8.04426 23.6214 8.99369 24.0897 9.72118 24.825L13.3529 28.5M5.94118 3.5L3.47059 1ZM3.47059 13.5H1ZM28.1765 3.5L30.6471 1ZM30.6471 11H33.1176Z" fill="white"/>
<path d="M35.5882 24.75C35.5882 23.7554 35.9787 22.8016 36.6737 22.0983C37.3687 21.3951 38.3113 21 39.2941 21C40.277 21 41.2196 21.3951 41.9146 22.0983C42.6096 22.8016 43 23.7554 43 24.75V36C43 39.9782 41.4382 43.7936 38.6583 46.6066C35.8783 49.4196 32.1079 51 28.1765 51H23.2353H23.7492C21.2942 51.0004 18.8776 50.3839 16.7164 49.2057C14.5551 48.0276 12.7168 46.3247 11.3666 44.25L10.8824 43.5C10.1115 42.3025 7.40624 37.53 2.764 29.18C2.29076 28.3288 2.16435 27.3244 2.41165 26.3804C2.65895 25.4363 3.26046 24.6272 4.08824 24.125C4.96993 23.5897 6.00312 23.3678 7.02369 23.4946C8.04426 23.6214 8.99369 24.0897 9.72118 24.825L13.3529 28.5M5.94118 3.5L3.47059 1M3.47059 13.5H1M28.1765 3.5L30.6471 1M30.6471 11H33.1176" stroke="black" stroke-linecap="round" stroke-linejoin="round"/>
</svg>
