<svg width="54" height="64" viewBox="0 0 54 64" fill="none" xmlns="http://www.w3.org/2000/svg">
<path d="M40.041 24.1931C49.1633 33.3946 49.1633 48.3372 40.041 57.5387C35.4409 62.1787 28.0339 62.1787 23.5118 57.5387C18.9896 52.8986 18.9117 45.5059 23.5118 40.8659C28.1119 36.2258 28.1119 28.7545 23.5118 24.1931C18.9117 19.6317 11.5047 19.553 6.98254 24.1931C16.1048 14.9916 30.9188 14.9916 40.041 24.1931Z" fill="white"/>
<path d="M6.84171 57.0988C-2.28057 47.8973 -2.28057 32.9547 6.84171 23.7532C11.4418 19.1132 18.8488 19.1132 23.371 23.7532C27.9711 28.3933 27.9711 35.8646 23.371 40.426C18.7708 44.9874 18.7708 52.5374 23.371 57.0988C27.9711 61.6602 35.3781 61.7389 39.9002 57.0988C30.7779 66.3003 15.964 66.3003 6.84171 57.0988Z" fill="black"/>
<path d="M32.4189 54.062C34.898 54.062 36.9077 52.0598 36.9077 49.59C36.9077 47.1201 34.898 45.1179 32.4189 45.1179C29.9398 45.1179 27.9301 47.1201 27.9301 49.59C27.9301 52.0598 29.9398 54.062 32.4189 54.062Z" fill="black"/>
<path d="M14.4638 36.1738C16.9429 36.1738 18.9526 34.1716 18.9526 31.7018C18.9526 29.2319 16.9429 27.2297 14.4638 27.2297C11.9847 27.2297 9.97505 29.2319 9.97505 31.7018C9.97505 34.1716 11.9847 36.1738 14.4638 36.1738Z" fill="white"/>
<path d="M25.0068 0C25.0068 0 23.71 -3.85024e-08 23.71 0.645963C23.7505 1.2132 26.3035 1.29193 26.3035 0.645963C26.3238 0.019177 25.0068 0 25.0068 0ZM17.3634 2.94643C15.7425 3.66709 14.0111 4.57547 12.7215 5.80684C9.31545 9.34954 7.03599 14.6787 7.58104 23.2276C9.22731 25.4986 15.402 27.2717 18.6034 27.7764C23.7849 29.9633 41.8646 28.852 45.3855 25.2059C45.2437 20.3915 47.0352 13.8472 45.1065 9.04348C43.8097 5.81367 42.6447 4.34333 38.6227 2.94643C34.003 1.48293 21.8818 0.897522 17.3634 2.94643ZM20.4331 29.1927C19.9002 30.3603 22.4133 34.882 23.7904 36.1739C25.1676 37.4658 27.0323 38.7578 27.6807 38.7578C34.8129 41.3416 52.3191 36.1739 52.3191 36.1739C52.3191 36.1739 53.7858 35.7092 53.9765 33.7928C54.3155 30.3881 50.9419 28.4224 46.4032 25.8385C38.6227 29.7143 27.6003 30.3603 20.4331 29.1927Z" fill="#E82D32"/>
</svg>
